<?xml version="1.0" encoding="UTF-8" ?>
<svg version="1.1" width="16" height="32" xmlns="http://www.w3.org/2000/svg" shape-rendering="crispEdges">
<rect x="4" y="16" width="1" height="1" fill="#F81800" />
<rect x="5" y="16" width="1" height="1" fill="#F81800" />
<rect x="6" y="16" width="1" height="1" fill="#F81800" />
<rect x="7" y="16" width="1" height="1" fill="#F81800" />
<rect x="8" y="16" width="1" height="1" fill="#F81800" />
<rect x="9" y="16" width="1" height="1" fill="#F81800" />
<rect x="10" y="16" width="1" height="1" fill="#F81800" />
<rect x="11" y="16" width="1" height="1" fill="#F81800" />
<rect x="12" y="16" width="1" height="1" fill="#602800" />
<rect x="4" y="17" width="1" height="1" fill="#F81800" />
<rect x="5" y="17" width="1" height="1" fill="#F81800" />
<rect x="6" y="17" width="1" height="1" fill="#F81800" />
<rect x="7" y="17" width="1" height="1" fill="#F81800" />
<rect x="8" y="17" width="1" height="1" fill="#F81800" />
<rect x="9" y="17" width="1" height="1" fill="#F81800" />
<rect x="10" y="17" width="1" height="1" fill="#F81800" />
<rect x="11" y="17" width="1" height="1" fill="#F81800" />
<rect x="12" y="17" width="1" height="1" fill="#602800" />
<rect x="4" y="18" width="1" height="1" fill="#F81800" />
<rect x="5" y="18" width="1" height="1" fill="#F81800" />
<rect x="6" y="18" width="1" height="1" fill="#F81800" />
<rect x="7" y="18" width="1" height="1" fill="#F81800" />
<rect x="8" y="18" width="1" height="1" fill="#F81800" />
<rect x="9" y="18" width="1" height="1" fill="#F81800" />
<rect x="10" y="18" width="1" height="1" fill="#F81800" />
<rect x="11" y="18" width="1" height="1" fill="#F81800" />
<rect x="12" y="18" width="1" height="1" fill="#602800" />
<rect x="4" y="19" width="1" height="1" fill="#F81800" />
<rect x="5" y="19" width="1" height="1" fill="#F81800" />
<rect x="6" y="19" width="1" height="1" fill="#F81800" />
<rect x="7" y="19" width="1" height="1" fill="#F81800" />
<rect x="8" y="19" width="1" height="1" fill="#F81800" />
<rect x="9" y="19" width="1" height="1" fill="#F81800" />
<rect x="10" y="19" width="1" height="1" fill="#F81800" />
<rect x="11" y="19" width="1" height="1" fill="#F81800" />
<rect x="12" y="19" width="1" height="1" fill="#602800" />
<rect x="4" y="20" width="1" height="1" fill="#F81800" />
<rect x="5" y="20" width="1" height="1" fill="#F81800" />
<rect x="6" y="20" width="1" height="1" fill="#F81800" />
<rect x="7" y="20" width="1" height="1" fill="#F81800" />
<rect x="8" y="20" width="1" height="1" fill="#F81800" />
<rect x="9" y="20" width="1" height="1" fill="#F81800" />
<rect x="10" y="20" width="1" height="1" fill="#F81800" />
<rect x="11" y="20" width="1" height="1" fill="#F81800" />
<rect x="12" y="20" width="1" height="1" fill="#602800" />
<rect x="4" y="21" width="1" height="1" fill="#F81800" />
<rect x="5" y="21" width="1" height="1" fill="#F81800" />
<rect x="6" y="21" width="1" height="1" fill="#F81800" />
<rect x="7" y="21" width="1" height="1" fill="#F81800" />
<rect x="8" y="21" width="1" height="1" fill="#F81800" />
<rect x="9" y="21" width="1" height="1" fill="#F81800" />
<rect x="10" y="21" width="1" height="1" fill="#F81800" />
<rect x="11" y="21" width="1" height="1" fill="#F81800" />
<rect x="12" y="21" width="1" height="1" fill="#602800" />
<rect x="4" y="22" width="1" height="1" fill="#F81800" />
<rect x="5" y="22" width="1" height="1" fill="#F81800" />
<rect x="6" y="22" width="1" height="1" fill="#F81800" />
<rect x="7" y="22" width="1" height="1" fill="#F81800" />
<rect x="8" y="22" width="1" height="1" fill="#F81800" />
<rect x="9" y="22" width="1" height="1" fill="#F81800" />
<rect x="10" y="22" width="1" height="1" fill="#F81800" />
<rect x="11" y="22" width="1" height="1" fill="#F81800" />
<rect x="12" y="22" width="1" height="1" fill="#602800" />
<rect x="4" y="23" width="1" height="1" fill="#F81800" />
<rect x="5" y="23" width="1" height="1" fill="#F81800" />
<rect x="6" y="23" width="1" height="1" fill="#F81800" />
<rect x="7" y="23" width="1" height="1" fill="#F81800" />
<rect x="8" y="23" width="1" height="1" fill="#F81800" />
<rect x="9" y="23" width="1" height="1" fill="#F81800" />
<rect x="10" y="23" width="1" height="1" fill="#F81800" />
<rect x="11" y="23" width="1" height="1" fill="#F81800" />
<rect x="12" y="23" width="1" height="1" fill="#602800" />
<rect x="4" y="24" width="1" height="1" fill="#F81800" />
<rect x="5" y="24" width="1" height="1" fill="#F81800" />
<rect x="6" y="24" width="1" height="1" fill="#F81800" />
<rect x="7" y="24" width="1" height="1" fill="#F81800" />
<rect x="8" y="24" width="1" height="1" fill="#F81800" />
<rect x="9" y="24" width="1" height="1" fill="#F81800" />
<rect x="10" y="24" width="1" height="1" fill="#F81800" />
<rect x="11" y="24" width="1" height="1" fill="#F81800" />
<rect x="12" y="24" width="1" height="1" fill="#602800" />
<rect x="4" y="25" width="1" height="1" fill="#F81800" />
<rect x="5" y="25" width="1" height="1" fill="#F81800" />
<rect x="6" y="25" width="1" height="1" fill="#F81800" />
<rect x="7" y="25" width="1" height="1" fill="#F81800" />
<rect x="8" y="25" width="1" height="1" fill="#F81800" />
<rect x="9" y="25" width="1" height="1" fill="#F81800" />
<rect x="10" y="25" width="1" height="1" fill="#F81800" />
<rect x="11" y="25" width="1" height="1" fill="#F81800" />
<rect x="12" y="25" width="1" height="1" fill="#602800" />
<rect x="4" y="26" width="1" height="1" fill="#F81800" />
<rect x="5" y="26" width="1" height="1" fill="#F81800" />
<rect x="6" y="26" width="1" height="1" fill="#F81800" />
<rect x="7" y="26" width="1" height="1" fill="#F81800" />
<rect x="8" y="26" width="1" height="1" fill="#F81800" />
<rect x="9" y="26" width="1" height="1" fill="#F81800" />
<rect x="10" y="26" width="1" height="1" fill="#F81800" />
<rect x="11" y="26" width="1" height="1" fill="#F81800" />
<rect x="12" y="26" width="1" height="1" fill="#602800" />
<rect x="4" y="27" width="1" height="1" fill="#F81800" />
<rect x="5" y="27" width="1" height="1" fill="#F81800" />
<rect x="6" y="27" width="1" height="1" fill="#F81800" />
<rect x="7" y="27" width="1" height="1" fill="#F81800" />
<rect x="8" y="27" width="1" height="1" fill="#F81800" />
<rect x="9" y="27" width="1" height="1" fill="#F81800" />
<rect x="10" y="27" width="1" height="1" fill="#F81800" />
<rect x="11" y="27" width="1" height="1" fill="#F81800" />
<rect x="12" y="27" width="1" height="1" fill="#602800" />
<rect x="5" y="28" width="1" height="1" fill="#F81800" />
<rect x="6" y="28" width="1" height="1" fill="#F81800" />
<rect x="7" y="28" width="1" height="1" fill="#F81800" />
<rect x="8" y="28" width="1" height="1" fill="#F81800" />
<rect x="9" y="28" width="1" height="1" fill="#F81800" />
<rect x="10" y="28" width="1" height="1" fill="#F81800" />
<rect x="11" y="28" width="1" height="1" fill="#602800" />
<rect x="12" y="28" width="1" height="1" fill="#602800" />
<rect x="6" y="29" width="1" height="1" fill="#602800" />
<rect x="7" y="29" width="1" height="1" fill="#602800" />
<rect x="8" y="29" width="1" height="1" fill="#602800" />
<rect x="9" y="29" width="1" height="1" fill="#602800" />
<rect x="10" y="29" width="1" height="1" fill="#602800" />
<rect x="11" y="29" width="1" height="1" fill="#602800" />
</svg>